<?xml version="1.0" encoding="UTF-8"?>
<svg width="32" height="32" viewBox="0 0 32 32" xmlns="http://www.w3.org/2000/svg">
  <!-- Pixel Art Enemy Character - Left Direction -->
  
  <!-- Enemy Body -->
  <rect x="8" y="12" width="16" height="12" fill="#e74c3c" />
  
  <!-- Enemy Head -->
  <rect x="10" y="4" width="12" height="10" fill="#c0392b" />
  
  <!-- Enemy Eyes -->
  <rect x="12" y="8" width="2" height="2" fill="#ffffff" />
  <rect x="18" y="8" width="2" height="2" fill="#ffffff" />
  <rect x="12" y="8" width="1" height="1" fill="#000000" />
  <rect x="18" y="8" width="1" height="1" fill="#000000" />
  
  <!-- Enemy Mouth -->
  <rect x="14" y="11" width="4" height="1" fill="#ffffff" />
  
  <!-- Enemy Spikes -->
  <polygon points="8,12 6,14 8,16 6,18 8,20 6,22 8,24" fill="#c0392b" />
  <polygon points="24,12 26,14 24,16 26,18 24,20 26,22 24,24" fill="#c0392b" />
  
  <!-- Enemy Legs -->
  <rect x="10" y="24" width="4" height="6" fill="#c0392b" />
  <rect x="18" y="24" width="4" height="6" fill="#c0392b" />
  
  <!-- Enemy Feet -->
  <rect x="8" y="30" width="6" height="2" fill="#a52a2a" />
  <rect x="18" y="30" width="6" height="2" fill="#a52a2a" />
  
  <!-- Enemy Animation -->
  <animateTransform attributeName="transform" type="translate"
      values="0,0; 0,-2; 0,0"
      dur="0.5s" repeatCount="indefinite"/>
</svg>