<?xml version="1.0" encoding="UTF-8"?>
<svg width="240" height="120" viewBox="0 0 240 120" xmlns="http://www.w3.org/2000/svg">
  <!-- RetroQuest Logo - Pixel Art Style -->
  
  <!-- Background Glow -->
  <filter id="glow" x="-20%" y="-20%" width="140%" height="140%">
    <feGaussianBlur stdDeviation="4" result="blur" />
    <feComposite in="SourceGraphic" in2="blur" operator="over" />
  </filter>
  
  <!-- Logo Base -->
  <g filter="url(#glow)">
    <!-- "RETRO" -->
    <!-- R -->
    <rect x="20" y="30" width="10" height="60" fill="#ff4e50" />
    <rect x="30" y="30" width="15" height="10" fill="#ff4e50" />
    <rect x="30" y="50" width="15" height="10" fill="#ff4e50" />
    <rect x="45" y="30" width="5" height="20" fill="#ff4e50" />
    <rect x="35" y="60" width="15" height="10" fill="#ff4e50" />
    <rect x="45" y="70" width="5" height="20" fill="#ff4e50" />
    
    <!-- E -->
    <rect x="55" y="30" width="10" height="60" fill="#ff9a00" />
    <rect x="65" y="30" width="20" height="10" fill="#ff9a00" />
    <rect x="65" y="50" width="15" height="10" fill="#ff9a00" />
    <rect x="65" y="80" width="20" height="10" fill="#ff9a00" />
    
    <!-- T -->
    <rect x="90" y="30" width="25" height="10" fill="#ffde00" />
    <rect x="97.5" y="40" width="10" height="50" fill="#ffde00" />
    
    <!-- R -->
    <rect x="120" y="30" width="10" height="60" fill="#00c362" />
    <rect x="130" y="30" width="15" height="10" fill="#00c362" />
    <rect x="130" y="50" width="15" height="10" fill="#00c362" />
    <rect x="145" y="30" width="5" height="20" fill="#00c362" />
    <rect x="135" y="60" width="15" height="10" fill="#00c362" />
    <rect x="145" y="70" width="5" height="20" fill="#00c362" />
    
    <!-- O -->
    <rect x="155" y="30" width="10" height="60" fill="#00a0ff" />
    <rect x="165" y="30" width="20" height="10" fill="#00a0ff" />
    <rect x="185" y="30" width="10" height="60" fill="#00a0ff" />
    <rect x="165" y="80" width="20" height="10" fill="#00a0ff" />
    
    <!-- Pixel Shadow -->
    <rect x="22" y="92" width="171" height="5" fill="#333" opacity="0.3" />
  </g>
  
  <!-- "QUEST" Subtitle -->
  <g transform="translate(65, 100)">
    <!-- Q -->
    <rect x="0" y="0" width="8" height="15" fill="#a742f5" />
    <rect x="8" y="0" width="12" height="5" fill="#a742f5" />
    <rect x="20" y="0" width="8" height="15" fill="#a742f5" />
    <rect x="8" y="15" width="12" height="5" fill="#a742f5" />
    <rect x="15" y="12" width="10" height="5" fill="#a742f5" />
    
    <!-- U -->
    <rect x="33" y="0" width="8" height="15" fill="#a742f5" />
    <rect x="41" y="15" width="10" height="5" fill="#a742f5" />
    <rect x="51" y="0" width="8" height="15" fill="#a742f5" />
    
    <!-- E -->
    <rect x="64" y="0" width="8" height="20" fill="#a742f5" />
    <rect x="72" y="0" width="10" height="5" fill="#a742f5" />
    <rect x="72" y="7.5" width="8" height="5" fill="#a742f5" />
    <rect x="72" y="15" width="10" height="5" fill="#a742f5" />
    
    <!-- S -->
    <rect x="87" y="0" width="15" height="5" fill="#a742f5" />
    <rect x="87" y="5" width="8" height="5" fill="#a742f5" />
    <rect x="87" y="10" width="15" height="5" fill="#a742f5" />
    <rect x="94" y="15" width="8" height="5" fill="#a742f5" />
    <rect x="87" y="15" width="15" height="5" fill="#a742f5" />
    
    <!-- T -->
    <rect x="107" y="0" width="15" height="5" fill="#a742f5" />
    <rect x="112" y="5" width="5" height="15" fill="#a742f5" />
  </g>
  
  <!-- Decorative Elements -->
  <!-- Pixel Stars -->
  <rect x="15" y="20" width="4" height="4" fill="#ffffff">
    <animate attributeName="opacity" values="1;0.3;1" dur="2s" repeatCount="indefinite" />
  </rect>
  <rect x="200" y="25" width="4" height="4" fill="#ffffff">
    <animate attributeName="opacity" values="1;0.3;1" dur="1.5s" repeatCount="indefinite" />
  </rect>
  <rect x="30" y="15" width="4" height="4" fill="#ffffff">
    <animate attributeName="opacity" values="0.3;1;0.3" dur="2.2s" repeatCount="indefinite" />
  </rect>
  <rect x="220" y="40" width="4" height="4" fill="#ffffff">
    <animate attributeName="opacity" values="0.3;1;0.3" dur="1.8s" repeatCount="indefinite" />
  </rect>
  
  <!-- Pixel Animations -->
  <animate attributeName="opacity" values="0.95;1;0.95" dur="2s" repeatCount="indefinite" />
</svg>