<?xml version="1.0" encoding="UTF-8"?>
<svg width="64" height="16" viewBox="0 0 64 16" xmlns="http://www.w3.org/2000/svg">
  <!-- Pixel Art Regular Platform -->
  
  <!-- Platform Base -->
  <rect x="0" y="0" width="64" height="16" fill="#7d4e24" />
  
  <!-- Platform Top -->
  <rect x="0" y="0" width="64" height="4" fill="#8d5a2a" />
  
  <!-- Platform Details - Bricks -->
  <rect x="0" y="4" width="8" height="4" fill="#6d4520" />
  <rect x="16" y="4" width="8" height="4" fill="#6d4520" />
  <rect x="32" y="4" width="8" height="4" fill="#6d4520" />
  <rect x="48" y="4" width="8" height="4" fill="#6d4520" />
  
  <rect x="8" y="8" width="8" height="4" fill="#6d4520" />
  <rect x="24" y="8" width="8" height="4" fill="#6d4520" />
  <rect x="40" y="8" width="8" height="4" fill="#6d4520" />
  <rect x="56" y="8" width="8" height="4" fill="#6d4520" />
  
  <rect x="0" y="12" width="8" height="4" fill="#6d4520" />
  <rect x="16" y="12" width="8" height="4" fill="#6d4520" />
  <rect x="32" y="12" width="8" height="4" fill="#6d4520" />
  <rect x="48" y="12" width="8" height="4" fill="#6d4520" />
  
  <!-- Platform Highlights -->
  <rect x="0" y="0" width="64" height="1" fill="#9d6a3a" />
  
  <!-- Platform Shadow -->
  <rect x="0" y="15" width="64" height="1" fill="#5d3510" />
</svg>