<?xml version="1.0" encoding="UTF-8"?>
<svg width="24" height="24" viewBox="0 0 24 24" xmlns="http://www.w3.org/2000/svg">
  <!-- Pixel Art Power-Up (Shield) -->
  
  <!-- Shield Base -->
  <path d="M12 3 L20 7 V13 C20 17 16 20 12 21 C8 20 4 17 4 13 V7 Z" fill="#3498db" />
  <path d="M12 5 L18 8 V13 C18 16 14.5 18 12 19 C9.5 18 6 16 6 13 V8 Z" fill="#2980b9" />
  
  <!-- Shield Emblem -->
  <rect x="10" y="9" width="4" height="8" fill="#ecf0f1" />
  <rect x="8" y="11" width="8" height="4" fill="#ecf0f1" />
  
  <!-- Shield Glow -->
  <path d="M12 3 L20 7 V13 C20 17 16 20 12 21 C8 20 4 17 4 13 V7 Z" fill="#3498db" opacity="0.3">
    <animate attributeName="opacity" values="0.3;0.6;0.3" dur="1.5s" repeatCount="indefinite" />
  </path>
  
  <!-- Shield Highlights -->
  <path d="M12 3 L20 7 L16 8 L12 6 L8 8 L4 7 Z" fill="#74b9ff" />
  
  <!-- Shield Sparkles -->
  <circle cx="12" cy="4" r="1" fill="#ffffff" opacity="0.8">
    <animate attributeName="opacity" values="0.8;0.2;0.8" dur="0.7s" repeatCount="indefinite" />
  </circle>
  <circle cx="17" cy="8" r="1" fill="#ffffff" opacity="0.6">
    <animate attributeName="opacity" values="0.6;0.1;0.6" dur="1.1s" repeatCount="indefinite" />
  </circle>
  <circle cx="7" cy="8" r="1" fill="#ffffff" opacity="0.6">
    <animate attributeName="opacity" values="0.6;0.1;0.6" dur="0.9s" repeatCount="indefinite" />
  </circle>
  
  <!-- Pulse Animation -->
  <animate attributeName="opacity" values="1;0.8;1" dur="1.2s" repeatCount="indefinite" />
  
  <!-- Float Animation -->
  <animateTransform attributeName="transform" type="translate"
      values="0,0; 0,-1; 0,0"
      dur="1s" repeatCount="indefinite"/>
</svg>