<svg width="1200" height="400" viewBox="0 0 1200 400" xmlns="http://www.w3.org/2000/svg">
  <style>
    .pixel {
      shape-rendering: crispEdges;
    }
  </style>
  <!-- Distant Mountains SVG -->
  <g class="pixel">
    <!-- Sky Gradient Background -->
    <rect x="0" y="0" width="1200" height="400" fill="#1a1a2e" />
    
    <!-- Farthest Mountain Range -->
    <path d="M0,400 L0,250 L50,260 L100,240 L150,250 L200,230 L250,240 L300,220 L350,230 L400,210 L450,220 L500,200 L550,210 L600,190 L650,200 L700,180 L750,190 L800,170 L850,180 L900,160 L950,170 L1000,150 L1050,160 L1100,140 L1150,150 L1200,140 L1200,400 Z" fill="#2d2d4d" />
    
    <!-- Middle Mountain Range -->
    <path d="M0,400 L0,280 L40,290 L80,270 L120,290 L160,270 L200,290 L240,280 L280,300 L320,280 L360,310 L400,290 L440,310 L480,290 L520,320 L560,300 L600,320 L640,300 L680,330 L720,310 L760,330 L800,310 L840,330 L880,310 L920,340 L960,320 L1000,340 L1040,320 L1080,340 L1120,320 L1160,340 L1200,320 L1200,400 Z" fill="#41416e" />
    
    <!-- Closer Mountain Range -->
    <path d="M0,400 L0,320 L30,330 L60,310 L90,330 L120,300 L150,330 L180,310 L210,340 L240,320 L270,350 L300,330 L330,350 L360,330 L390,360 L420,340 L450,370 L480,350 L510,380 L540,360 L570,390 L600,370 L630,390 L660,370 L690,400 L720,380 L750,400 L780,380 L810,400 L840,380 L870,400 L900,380 L930,400 L960,380 L990,400 L1020,380 L1050,400 L1080,380 L1110,400 L1140,380 L1170,400 L1200,380 L1200,400 Z" fill="#565695" />
    
    <!-- Stars in the sky -->
    <rect x="50" y="50" width="4" height="4" fill="#ffffff" />
    <rect x="150" y="80" width="4" height="4" fill="#ffffff" />
    <rect x="250" y="30" width="4" height="4" fill="#ffffff" />
    <rect x="350" y="70" width="4" height="4" fill="#ffffff" />
    <rect x="450" y="40" width="4" height="4" fill="#ffffff" />
    <rect x="550" y="90" width="4" height="4" fill="#ffffff" />
    <rect x="650" y="60" width="4" height="4" fill="#ffffff" />
    <rect x="750" y="100" width="4" height="4" fill="#ffffff" />
    <rect x="850" y="50" width="4" height="4" fill="#ffffff" />
    <rect x="950" y="80" width="4" height="4" fill="#ffffff" />
    <rect x="1050" y="30" width="4" height="4" fill="#ffffff" />
    <rect x="1150" y="70" width="4" height="4" fill="#ffffff" />
    
    <!-- Brighter stars -->
    <rect x="100" y="100" width="6" height="6" fill="#ffffff" />
    <rect x="300" y="120" width="6" height="6" fill="#ffffff" />
    <rect x="500" y="150" width="6" height="6" fill="#ffffff" />
    <rect x="700" y="130" width="6" height="6" fill="#ffffff" />
    <rect x="900" y="110" width="6" height="6" fill="#ffffff" />
    <rect x="1100" y="140" width="6" height="6" fill="#ffffff" />
    
    <!-- Moon -->
    <circle cx="200" cy="100" r="40" fill="#d0d0ff" />
    <circle cx="220" cy="80" r="15" fill="#e8e8ff" />
  </g>
</svg>