<?xml version="1.0" encoding="UTF-8"?>
<svg width="1024" height="576" viewBox="0 0 1024 576" xmlns="http://www.w3.org/2000/svg">
  <!-- RetroQuest Game Background - Pixel Art Style -->
  
  <!-- Sky Gradient -->
  <defs>
    <linearGradient id="skyGradient" x1="0%" y1="0%" x2="0%" y2="100%">
      <stop offset="0%" style="stop-color:#1a2980;stop-opacity:1" />
      <stop offset="100%" style="stop-color:#26d0ce;stop-opacity:1" />
    </linearGradient>
  </defs>
  
  <!-- Sky Background -->
  <rect width="1024" height="576" fill="url(#skyGradient)" />
  
  <!-- Distant Mountains -->
  <polygon points="0,350 150,200 300,300 450,180 600,280 750,220 900,320 1024,250 1024,576 0,576" fill="#3a3a75" />
  
  <!-- Closer Mountains -->
  <polygon points="0,400 100,300 200,370 300,280 400,350 500,270 600,380 700,310 800,390 900,330 1024,410 1024,576 0,576" fill="#4e4e96" />
  
  <!-- Hills -->
  <polygon points="0,450 120,420 240,460 360,425 480,470 600,430 720,455 840,420 960,465 1024,440 1024,576 0,576" fill="#6a6aae" />
  
  <!-- Clouds -->
  <!-- Cloud 1 -->
  <g opacity="0.7">
    <rect x="100" y="100" width="120" height="30" fill="#ffffff" rx="15" ry="15" />
    <rect x="130" y="85" width="60" height="30" fill="#ffffff" rx="15" ry="15" />
    <animateTransform attributeName="transform" type="translate"
        values="0,0; 20,0; 0,0"
        dur="30s" repeatCount="indefinite"/>
  </g>
  
  <!-- Cloud 2 -->
  <g opacity="0.6">
    <rect x="400" y="150" width="150" height="30" fill="#ffffff" rx="15" ry="15" />
    <rect x="440" y="135" width="70" height="30" fill="#ffffff" rx="15" ry="15" />
    <animateTransform attributeName="transform" type="translate"
        values="0,0; -30,0; 0,0"
        dur="35s" repeatCount="indefinite"/>
  </g>
  
  <!-- Cloud 3 -->
  <g opacity="0.5">
    <rect x="700" y="120" width="100" height="25" fill="#ffffff" rx="12" ry="12" />
    <rect x="725" y="105" width="50" height="25" fill="#ffffff" rx="12" ry="12" />
    <animateTransform attributeName="transform" type="translate"
        values="0,0; 15,0; 0,0"
        dur="40s" repeatCount="indefinite"/>
  </g>
  
  <!-- Foreground Platform Hints -->
  <rect x="0" y="500" width="1024" height="76" fill="#333355" />
  
  <!-- Stars -->
  <g>
    <rect x="50" y="50" width="2" height="2" fill="#ffffff">
      <animate attributeName="opacity" values="1;0.2;1" dur="2s" repeatCount="indefinite" />
    </rect>
    <rect x="120" y="70" width="2" height="2" fill="#ffffff">
      <animate attributeName="opacity" values="1;0.3;1" dur="3s" repeatCount="indefinite" />
    </rect>
    <rect x="200" y="40" width="3" height="3" fill="#ffffff">
      <animate attributeName="opacity" values="0.3;1;0.3" dur="2.5s" repeatCount="indefinite" />
    </rect>
    <rect x="300" y="80" width="2" height="2" fill="#ffffff">
      <animate attributeName="opacity" values="0.5;1;0.5" dur="1.7s" repeatCount="indefinite" />
    </rect>
    <rect x="450" y="60" width="3" height="3" fill="#ffffff">
      <animate attributeName="opacity" values="1;0.2;1" dur="2.8s" repeatCount="indefinite" />
    </rect>
    <rect x="600" y="50" width="2" height="2" fill="#ffffff">
      <animate attributeName="opacity" values="0.3;1;0.3" dur="3.2s" repeatCount="indefinite" />
    </rect>
    <rect x="700" y="90" width="2" height="2" fill="#ffffff">
      <animate attributeName="opacity" values="1;0.4;1" dur="2.1s" repeatCount="indefinite" />
    </rect>
    <rect x="850" y="70" width="3" height="3" fill="#ffffff">
      <animate attributeName="opacity" values="0.5;1;0.5" dur="1.9s" repeatCount="indefinite" />
    </rect>
    <rect x="950" y="55" width="2" height="2" fill="#ffffff">
      <animate attributeName="opacity" values="1;0.3;1" dur="2.3s" repeatCount="indefinite" />
    </rect>
  </g>
</svg>