<?xml version="1.0" encoding="UTF-8"?>
<svg width="1024" height="576" viewBox="0 0 1024 576" xmlns="http://www.w3.org/2000/svg">
  <!-- RetroQuest Menu Background - Pixel Art Style -->
  
  <!-- Background Gradient -->
  <defs>
    <linearGradient id="bgGradient" x1="0%" y1="0%" x2="0%" y2="100%">
      <stop offset="0%" style="stop-color:#000428;stop-opacity:1" />
      <stop offset="100%" style="stop-color:#004e92;stop-opacity:1" />
    </linearGradient>
    
    <!-- Star Particle Effect -->
    <filter id="starGlow" x="-50%" y="-50%" width="200%" height="200%">
      <feGaussianBlur stdDeviation="1" result="blur" />
      <feComposite in="SourceGraphic" in2="blur" operator="over" />
    </filter>
  </defs>
  
  <!-- Main Background -->
  <rect width="1024" height="576" fill="url(#bgGradient)" />
  
  <!-- Distant Grid -->
  <g opacity="0.3">
    <!-- Horizontal Lines -->
    <rect x="0" y="100" width="1024" height="1" fill="#00a8ff" />
    <rect x="0" y="200" width="1024" height="1" fill="#00a8ff" />
    <rect x="0" y="300" width="1024" height="1" fill="#00a8ff" />
    <rect x="0" y="400" width="1024" height="1" fill="#00a8ff" />
    <rect x="0" y="500" width="1024" height="1" fill="#00a8ff" />
    
    <!-- Vertical Lines -->
    <rect x="100" y="0" width="1" height="576" fill="#00a8ff" />
    <rect x="200" y="0" width="1" height="576" fill="#00a8ff" />
    <rect x="300" y="0" width="1" height="576" fill="#00a8ff" />
    <rect x="400" y="0" width="1" height="576" fill="#00a8ff" />
    <rect x="500" y="0" width="1" height="576" fill="#00a8ff" />
    <rect x="600" y="0" width="1" height="576" fill="#00a8ff" />
    <rect x="700" y="0" width="1" height="576" fill="#00a8ff" />
    <rect x="800" y="0" width="1" height="576" fill="#00a8ff" />
    <rect x="900" y="0" width="1" height="576" fill="#00a8ff" />
  </g>
  
  <!-- Horizon Glow -->
  <rect x="0" y="350" width="1024" height="10" fill="#00a8ff" opacity="0.2" />
  
  <!-- Pixel Mountains -->
  <g opacity="0.8">
    <!-- Mountain Range -->
    <polygon points="0,450 120,350 200,420 280,360 350,430 420,380 500,450 580,400 650,440 700,380 780,450 850,380 900,420 950,390 1024,450 1024,576 0,576" fill="#001f54" />
    
    <!-- Mountain Details (Snow Caps) -->
    <polygon points="118,350 130,350 125,360" fill="#ffffff" opacity="0.7" />
    <polygon points="278,360 290,360 284,370" fill="#ffffff" opacity="0.7" />
    <polygon points="418,380 430,380 425,390" fill="#ffffff" opacity="0.7" />
    <polygon points="578,400 590,400 585,410" fill="#ffffff" opacity="0.7" />
    <polygon points="698,380 710,380 705,390" fill="#ffffff" opacity="0.7" />
    <polygon points="848,380 860,380 855,390" fill="#ffffff" opacity="0.7" />
    <polygon points="948,390 960,390 955,400" fill="#ffffff" opacity="0.7" />
  </g>
  
  <!-- Star Field -->
  <g filter="url(#starGlow)">
    <!-- Small Stars -->
    <g>
      <rect x="50" y="50" width="2" height="2" fill="#ffffff">
        <animate attributeName="opacity" values="0.7;0.2;0.7" dur="3s" repeatCount="indefinite" />
      </rect>
      <rect x="120" y="75" width="2" height="2" fill="#ffffff">
        <animate attributeName="opacity" values="0.9;0.3;0.9" dur="2.5s" repeatCount="indefinite" />
      </rect>
      <rect x="200" y="100" width="2" height="2" fill="#ffffff">
        <animate attributeName="opacity" values="0.8;0.1;0.8" dur="4s" repeatCount="indefinite" />
      </rect>
      <rect x="270" y="80" width="2" height="2" fill="#ffffff">
        <animate attributeName="opacity" values="0.6;0.2;0.6" dur="3.2s" repeatCount="indefinite" />
      </rect>
      <rect x="350" y="130" width="2" height="2" fill="#ffffff">
        <animate attributeName="opacity" values="0.7;0.3;0.7" dur="2.8s" repeatCount="indefinite" />
      </rect>
      <rect x="430" y="60" width="2" height="2" fill="#ffffff">
        <animate attributeName="opacity" values="0.9;0.4;0.9" dur="3.5s" repeatCount="indefinite" />
      </rect>
      <rect x="500" y="90" width="2" height="2" fill="#ffffff">
        <animate attributeName="opacity" values="0.8;0.2;0.8" dur="2.7s" repeatCount="indefinite" />
      </rect>
      <rect x="580" y="120" width="2" height="2" fill="#ffffff">
        <animate attributeName="opacity" values="0.7;0.1;0.7" dur="3.8s" repeatCount="indefinite" />
      </rect>
      <rect x="650" y="70" width="2" height="2" fill="#ffffff">
        <animate attributeName="opacity" values="0.6;0.3;0.6" dur="3.3s" repeatCount="indefinite" />
      </rect>
      <rect x="720" y="110" width="2" height="2" fill="#ffffff">
        <animate attributeName="opacity" values="0.9;0.2;0.9" dur="2.9s" repeatCount="indefinite" />
      </rect>
      <rect x="800" y="85" width="2" height="2" fill="#ffffff">
        <animate attributeName="opacity" values="0.8;0.4;0.8" dur="3.1s" repeatCount="indefinite" />
      </rect>
      <rect x="880" y="65" width="2" height="2" fill="#ffffff">
        <animate attributeName="opacity" values="0.7;0.2;0.7" dur="3.6s" repeatCount="indefinite" />
      </rect>
      <rect x="950" y="95" width="2" height="2" fill="#ffffff">
        <animate attributeName="opacity" values="0.9;0.3;0.9" dur="3.4s" repeatCount="indefinite" />
      </rect>
    </g>
    
    <!-- Medium Stars -->
    <g>
      <rect x="75" y="180" width="3" height="3" fill="#ffffff">
        <animate attributeName="opacity" values="0.9;0.4;0.9" dur="2.6s" repeatCount="indefinite" />
      </rect>
      <rect x="180" y="220" width="3" height="3" fill="#ffffff">
        <animate attributeName="opacity" values="0.8;0.3;0.8" dur="3.7s" repeatCount="indefinite" />
      </rect>
      <rect x="320" y="190" width="3" height="3" fill="#ffffff">
        <animate attributeName="opacity" values="0.7;0.2;0.7" dur="2.4s" repeatCount="indefinite" />
      </rect>
      <rect x="450" y="230" width="3" height="3" fill="#ffffff">
        <animate attributeName="opacity" values="0.9;0.1;0.9" dur="3.9s" repeatCount="indefinite" />
      </rect>
      <rect x="600" y="200" width="3" height="3" fill="#ffffff">
        <animate attributeName="opacity" values="0.8;0.2;0.8" dur="3.0s" repeatCount="indefinite" />
      </rect>
      <rect x="750" y="240" width="3" height="3" fill="#ffffff">
        <animate attributeName="opacity" values="0.7;0.3;0.7" dur="2.2s" repeatCount="indefinite" />
      </rect>
      <rect x="900" y="210" width="3" height="3" fill="#ffffff">
        <animate attributeName="opacity" values="0.9;0.4;0.9" dur="2.8s" repeatCount="indefinite" />
      </rect>
    </g>
    
    <!-- Large Stars -->
    <g>
      <rect x="150" y="300" width="4" height="4" fill="#ffffff">
        <animate attributeName="opacity" values="1;0.5;1" dur="2.0s" repeatCount="indefinite" />
      </rect>
      <rect x="380" y="280" width="4" height="4" fill="#ffffff">
        <animate attributeName="opacity" values="1;0.4;1" dur="3.3s" repeatCount="indefinite" />
      </rect>
      <rect x="620" y="310" width="4" height="4" fill="#ffffff">
        <animate attributeName="opacity" values="1;0.3;1" dur="2.5s" repeatCount="indefinite" />
      </rect>
      <rect x="850" y="290" width="4" height="4" fill="#ffffff">
        <animate attributeName="opacity" values="1;0.6;1" dur="2.7s" repeatCount="indefinite" />
      </rect>
    </g>
  </g>
  
  <!-- Foreground Shadow (for text contrast) -->
  <rect x="0" y="350" width="1024" height="226" fill="#000428" opacity="0.3" />
  
  <!-- Scanlines Effect -->
  <g opacity="0.05">
    <rect x="0" y="0" width="1024" height="2" fill="#ffffff" />
    <rect x="0" y="4" width="1024" height="2" fill="#ffffff" />
    <rect x="0" y="8" width="1024" height="2" fill="#ffffff" />
    <rect x="0" y="12" width="1024" height="2" fill="#ffffff" />
    <rect x="0" y="16" width="1024" height="2" fill="#ffffff" />
    <rect x="0" y="20" width="1024" height="2" fill="#ffffff" />
    <!-- Repeating pattern continuing down -->
    <animate attributeName="opacity" values="0.05;0.07;0.05" dur="4s" repeatCount="indefinite" />
  </g>
</svg>