<svg width="32" height="32" viewBox="0 0 32 32" xmlns="http://www.w3.org/2000/svg">
  <style>
    .pixel { shape-rendering: crispEdges; }
  </style>
  <!-- Backpack Icon SVG -->
  <g class="pixel">
    <!-- Backpack body -->
    <path d="M8,12 L24,12 L24,26 L8,26 Z" fill="#8B4513" />
    
    <!-- Backpack front pocket -->
    <path d="M10,18 L22,18 L22,24 L10,24 Z" fill="#A0522D" />
    
    <!-- Backpack straps -->
    <path d="M10,6 L10,12 L14,12 L14,6 Z" fill="#8B4513" />
    <path d="M18,6 L18,12 L22,12 L22,6 Z" fill="#8B4513" />
    
    <!-- Backpack top -->
    <path d="M8,10 L24,10 L24,12 L8,12 Z" fill="#A0522D" />
    
    <!-- Pocket details -->
    <rect x="15" y="20" width="2" height="2" fill="#6B3100" />
    <rect x="14" y="15" width="4" height="1" fill="#6B3100" />
    
    <!-- Strap details -->
    <rect x="10" y="8" width="4" height="1" fill="#6B3100" />
    <rect x="18" y="8" width="4" height="1" fill="#6B3100" />
    
    <!-- Item peeking out -->
    <rect x="16" y="8" width="2" height="2" fill="#ffcd75" />
  </g>
</svg>