<svg width="32" height="32" viewBox="0 0 32 32" xmlns="http://www.w3.org/2000/svg">
  <style>
    .pixel { shape-rendering: crispEdges; }
  </style>
  <!-- Gear Icon SVG -->
  <g class="pixel">
    <!-- Gear outer circle -->
    <circle cx="16" cy="16" r="10" fill="#5d3fe8" />
    
    <!-- Gear inner circle -->
    <circle cx="16" cy="16" r="4" fill="#333333" />
    
    <!-- Gear teeth -->
    <rect x="14" y="3" width="4" height="5" fill="#5d3fe8" />
    <rect x="14" y="24" width="4" height="5" fill="#5d3fe8" />
    <rect x="3" y="14" width="5" height="4" fill="#5d3fe8" />
    <rect x="24" y="14" width="5" height="4" fill="#5d3fe8" />
    
    <!-- Diagonal teeth -->
    <rect x="6" y="6" width="4" height="5" transform="rotate(45 6 6)" fill="#5d3fe8" />
    <rect x="22" y="6" width="4" height="5" transform="rotate(-45 22 6)" fill="#5d3fe8" />
    <rect x="6" y="22" width="4" height="5" transform="rotate(-45 6 22)" fill="#5d3fe8" />
    <rect x="22" y="22" width="4" height="5" transform="rotate(45 22 22)" fill="#5d3fe8" />
    
    <!-- Highlight -->
    <path d="M16,6 A10,10 0 0,1 26,16 A10,10 0 0,1 16,26 L16,20 A4,4 0 0,0 20,16 A4,4 0 0,0 16,12 Z" fill="#7f66ff" />
  </g>
</svg>