<svg width="32" height="32" viewBox="0 0 32 32" xmlns="http://www.w3.org/2000/svg">
  <style>
    .pixel { shape-rendering: crispEdges; }
  </style>
  <!-- Hand (Interact) Icon SVG -->
  <g class="pixel">
    <!-- Palm -->
    <path d="M14,22 L22,22 L22,14 L14,14 Z" fill="#FFD3B6" />
    
    <!-- Thumb -->
    <path d="M12,14 L14,14 L14,10 L12,10 Z" fill="#FFD3B6" />
    <path d="M10,10 L12,10 L12,8 L10,8 Z" fill="#FFD3B6" />
    
    <!-- Index finger -->
    <path d="M16,14 L18,14 L18,8 L16,8 Z" fill="#FFD3B6" />
    <path d="M16,8 L18,8 L18,6 L16,6 Z" fill="#FFD3B6" />
    
    <!-- Middle finger -->
    <path d="M18,14 L20,14 L20,6 L18,6 Z" fill="#FFD3B6" />
    <path d="M18,6 L20,6 L20,4 L18,4 Z" fill="#FFD3B6" />
    
    <!-- Ring finger -->
    <path d="M20,14 L22,14 L22,8 L20,8 Z" fill="#FFD3B6" />
    <path d="M20,8 L22,8 L22,6 L20,6 Z" fill="#FFD3B6" />
    
    <!-- Pinky finger -->
    <path d="M22,14 L24,14 L24,10 L22,10 Z" fill="#FFD3B6" />
    <path d="M22,10 L24,10 L24,8 L22,8 Z" fill="#FFD3B6" />
    
    <!-- Wrist -->
    <path d="M14,22 L22,22 L22,26 L14,26 Z" fill="#FFD3B6" />
    
    <!-- Shading details -->
    <path d="M14,22 L16,22 L16,26 L14,26 Z" fill="#EDBEA0" />
    <path d="M12,10 L14,10 L14,12 L12,12 Z" fill="#EDBEA0" />
    <path d="M16,6 L18,6 L18,8 L16,8 Z" fill="#EDBEA0" />
    <path d="M18,4 L20,4 L20,6 L18,6 Z" fill="#EDBEA0" />
    <path d="M20,6 L22,6 L22,8 L20,8 Z" fill="#EDBEA0" />
    <path d="M22,8 L24,8 L24,10 L22,10 Z" fill="#EDBEA0" />
    
    <!-- Interactive particle -->
    <circle cx="20" cy="18" r="2" fill="#41a6f6" stroke="#ffffff" stroke-width="1" />
  </g>
</svg>