<svg width="32" height="32" viewBox="0 0 32 32" xmlns="http://www.w3.org/2000/svg">
  <style>
    .pixel { shape-rendering: crispEdges; }
  </style>
  <!-- Magic Icon SVG -->
  <g class="pixel">
    <!-- Magic wand -->
    <rect x="8" y="24" width="16" height="2" fill="#8B4513" />
    <rect x="22" y="22" width="2" height="2" fill="#8B4513" />
    <rect x="20" y="20" width="2" height="2" fill="#8B4513" />
    <rect x="18" y="18" width="2" height="2" fill="#8B4513" />
    <rect x="16" y="16" width="2" height="2" fill="#8B4513" />
    <rect x="14" y="14" width="2" height="2" fill="#8B4513" />
    <rect x="12" y="12" width="2" height="2" fill="#8B4513" />
    <rect x="10" y="10" width="2" height="2" fill="#8B4513" />
    
    <!-- Magic tip -->
    <rect x="8" y="8" width="2" height="2" fill="#FFD700" />
    
    <!-- Magic sparkles -->
    <rect x="4" y="6" width="2" height="2" fill="#ffffff" />
    <rect x="6" y="4" width="2" height="2" fill="#ffffff" />
    <rect x="10" y="4" width="2" height="2" fill="#ffffff" />
    <rect x="12" y="6" width="2" height="2" fill="#ffffff" />
    
    <!-- Magic effects -->
    <circle cx="18" cy="10" r="1" fill="#ff6b6b" />
    <circle cx="22" cy="14" r="1" fill="#41a6f6" />
    <circle cx="24" cy="8" r="1" fill="#73ef67" />
    <circle cx="26" cy="18" r="1" fill="#ffcd75" />
    
    <!-- Magic stars -->
    <path d="M20,4 L21,6 L23,6 L22,8 L23,10 L21,10 L20,12 L19,10 L17,10 L18,8 L17,6 L19,6 Z" fill="#d767ff" />
    <path d="M26,12 L27,13 L28,12 L27,14 L28,16 L26,15 L24,16 L25,14 L24,12 L26,13 Z" fill="#5d3fe8" />
  </g>
</svg>