<svg width="32" height="32" viewBox="0 0 32 32" xmlns="http://www.w3.org/2000/svg">
  <style>
    .pixel { shape-rendering: crispEdges; }
  </style>
  <!-- Scroll Icon SVG -->
  <g class="pixel">
    <!-- Scroll body -->
    <path d="M8,6 L24,6 L24,26 L8,26 Z" fill="#f5e6d8" />
    
    <!-- Scroll top roll -->
    <path d="M8,6 C8,4 10,2 12,2 L24,2 C26,2 28,4 28,6 L28,8 C28,10 26,12 24,12 L8,12 L8,6 Z" fill="#d767ff" />
    
    <!-- Scroll bottom roll -->
    <path d="M8,26 C8,28 10,30 12,30 L24,30 C26,30 28,28 28,26 L28,24 C28,22 26,20 24,20 L8,20 L8,26 Z" fill="#d767ff" />
    
    <!-- Scroll lines -->
    <rect x="10" y="8" width="12" height="1" fill="#777777" />
    <rect x="10" y="10" width="8" height="1" fill="#777777" />
    <rect x="10" y="14" width="10" height="1" fill="#777777" />
    <rect x="10" y="16" width="12" height="1" fill="#777777" />
    <rect x="10" y="18" width="6" height="1" fill="#777777" />
    <rect x="10" y="22" width="10" height="1" fill="#777777" />
    <rect x="10" y="24" width="8" height="1" fill="#777777" />
    
    <!-- Top roll details -->
    <path d="M24,6 C24,4 26,6 26,8 L26,10 C26,12 24,10 24,8 L24,6 Z" fill="#b44cdd" />
    
    <!-- Bottom roll details -->
    <path d="M24,26 C24,28 26,26 26,24 L26,22 C26,20 24,22 24,24 L24,26 Z" fill="#b44cdd" />
  </g>
</svg>